<svg xmlns="http://www.w3.org/2000/svg" xmlns:xlink="http://www.w3.org/1999/xlink" width="236.371" height="239.995" viewBox="0 0 236.371 239.995"><defs><style>.a{fill:#323754;}.b{fill:url(#a);}</style><linearGradient id="a" x1="0.5" x2="0.5" y2="1" gradientUnits="objectBoundingBox"><stop offset="0" stop-color="#7719db"/><stop offset="1" stop-color="#20d9ff"/></linearGradient></defs><g transform="translate(-566.479 -647)"><g transform="translate(566.479 650.479)"><path class="a" d="M116.521,233.042a117.383,117.383,0,0,1-23.483-2.367,115.883,115.883,0,0,1-41.665-17.533A116.861,116.861,0,0,1,9.157,161.876,115.935,115.935,0,0,1,2.367,140a117.657,117.657,0,0,1,0-46.966A115.883,115.883,0,0,1,19.9,51.373,116.861,116.861,0,0,1,71.166,9.157a115.936,115.936,0,0,1,21.872-6.79,117.657,117.657,0,0,1,46.966,0A115.883,115.883,0,0,1,181.669,19.9a116.861,116.861,0,0,1,42.216,51.266,115.935,115.935,0,0,1,6.79,21.872,117.658,117.658,0,0,1,0,46.966,115.883,115.883,0,0,1-17.533,41.665,116.861,116.861,0,0,1-51.266,42.216A115.932,115.932,0,0,1,140,230.674,117.383,117.383,0,0,1,116.521,233.042Zm0-226.487A109.967,109.967,0,1,0,226.487,116.521,110.091,110.091,0,0,0,116.521,6.554Z"/></g><path class="b" d="M-6814.651,1979.258a120.928,120.928,0,0,1-24.185-2.437,119.352,119.352,0,0,1-22.524-6.992,120,120,0,0,1-20.383-11.064c-.917-.619-1.845-1.265-2.757-1.919l8.386-11.577a104.914,104.914,0,0,0,61.463,19.741,105.87,105.87,0,0,0,105.75-105.75c0-57.8-47.015-105.235-104.8-105.745l.046-14.251a120.916,120.916,0,0,1,23.192,2.433,119.533,119.533,0,0,1,22.526,6.993,119.969,119.969,0,0,1,20.383,11.064,120.752,120.752,0,0,1,17.76,14.652,121.117,121.117,0,0,1,14.654,17.76,120.009,120.009,0,0,1,11.063,20.385,119.347,119.347,0,0,1,6.993,22.524,120.933,120.933,0,0,1,2.438,24.184,120.931,120.931,0,0,1-2.437,24.184,119.348,119.348,0,0,1-6.993,22.524,120.009,120.009,0,0,1-11.062,20.385,120.952,120.952,0,0,1-14.654,17.758,120.692,120.692,0,0,1-17.76,14.654,120.07,120.07,0,0,1-20.383,11.064,119.4,119.4,0,0,1-22.526,6.992A120.9,120.9,0,0,1-6814.651,1979.258Z" transform="translate(7497.501 -1092.263)"/></g></svg>