<svg xmlns="http://www.w3.org/2000/svg" xmlns:xlink="http://www.w3.org/1999/xlink" width="240" height="239.999" viewBox="0 0 240 239.999"><defs><style>.a{fill:#323754;}.b{fill:url(#a);}</style><linearGradient id="a" x1="0.5" x2="0.5" y2="1" gradientUnits="objectBoundingBox"><stop offset="0" stop-color="#7719db"/><stop offset="1" stop-color="#20d9ff"/></linearGradient></defs><g transform="translate(-896 -5400)"><path class="a" d="M116.521,233.042a117.383,117.383,0,0,1-23.483-2.367,115.883,115.883,0,0,1-41.665-17.533A116.861,116.861,0,0,1,9.157,161.876,115.935,115.935,0,0,1,2.367,140a117.657,117.657,0,0,1,0-46.966A115.883,115.883,0,0,1,19.9,51.373,116.861,116.861,0,0,1,71.166,9.157a115.936,115.936,0,0,1,21.872-6.79,117.657,117.657,0,0,1,46.966,0A115.883,115.883,0,0,1,181.669,19.9a116.861,116.861,0,0,1,42.216,51.266,115.935,115.935,0,0,1,6.79,21.872,117.658,117.658,0,0,1,0,46.966,115.883,115.883,0,0,1-17.533,41.665,116.861,116.861,0,0,1-51.266,42.216A115.932,115.932,0,0,1,140,230.674,117.383,117.383,0,0,1,116.521,233.042Zm0-226.487A109.967,109.967,0,1,0,226.487,116.521,110.091,110.091,0,0,0,116.521,6.554Z" transform="translate(899.479 5406.479)"/><path class="b" d="M370.752,509.748a120.853,120.853,0,0,1-24.185-2.438,119.336,119.336,0,0,1-42.908-18.056,120.36,120.36,0,0,1-43.477-52.8,119.42,119.42,0,0,1-6.992-22.525,121.162,121.162,0,0,1,0-48.368,119.694,119.694,0,0,1,3.126-12.033l13.606,4.306A105.756,105.756,0,1,0,370.752,284v-14.25a120.913,120.913,0,0,1,24.184,2.437,119.36,119.36,0,0,1,42.908,18.057,120.339,120.339,0,0,1,43.477,52.8,119.418,119.418,0,0,1,6.992,22.525,121.162,121.162,0,0,1,0,48.368,119.351,119.351,0,0,1-18.056,42.909,120.357,120.357,0,0,1-52.8,43.476,119.311,119.311,0,0,1-22.525,6.992A120.849,120.849,0,0,1,370.752,509.748Z" transform="translate(645.248 5130.251)"/></g></svg>