<svg xmlns="http://www.w3.org/2000/svg" xmlns:xlink="http://www.w3.org/1999/xlink" width="240" height="239.965" viewBox="0 0 240 239.965"><defs><style>.a{fill:#323754;}.b{fill:url(#a);}</style><linearGradient id="a" x1="0.5" x2="0.5" y2="1" gradientUnits="objectBoundingBox"><stop offset="0" stop-color="#7719db"/><stop offset="1" stop-color="#20d9ff"/></linearGradient></defs><g transform="translate(-1198 -647)"><path class="a" d="M116.521,233.042a117.383,117.383,0,0,1-23.483-2.367,115.883,115.883,0,0,1-41.665-17.533A116.861,116.861,0,0,1,9.157,161.876,115.935,115.935,0,0,1,2.367,140a117.657,117.657,0,0,1,0-46.966A115.883,115.883,0,0,1,19.9,51.373,116.861,116.861,0,0,1,71.166,9.157a115.936,115.936,0,0,1,21.872-6.79,117.657,117.657,0,0,1,46.966,0A115.883,115.883,0,0,1,181.669,19.9a116.861,116.861,0,0,1,42.216,51.266,115.935,115.935,0,0,1,6.79,21.872,117.658,117.658,0,0,1,0,46.966,115.883,115.883,0,0,1-17.533,41.665,116.861,116.861,0,0,1-51.266,42.216A115.932,115.932,0,0,1,140,230.674,117.383,117.383,0,0,1,116.521,233.042Zm0-226.487A109.967,109.967,0,1,0,226.487,116.521,110.091,110.091,0,0,0,116.521,6.554Z" transform="translate(1201.479 650.479)"/><path class="b" d="M-6985,1648.425a120.792,120.792,0,0,1-24.184-2.439,119.306,119.306,0,0,1-22.524-6.992,120.019,120.019,0,0,1-20.385-11.064,120.922,120.922,0,0,1-17.76-14.652,120.97,120.97,0,0,1-14.652-17.76,119.882,119.882,0,0,1-11.064-20.385,119.4,119.4,0,0,1-6.993-22.524,120.911,120.911,0,0,1-2.438-24.184,120.91,120.91,0,0,1,2.438-24.184,119.407,119.407,0,0,1,6.993-22.524,119.878,119.878,0,0,1,11.064-20.385,120.947,120.947,0,0,1,14.652-17.76,120.837,120.837,0,0,1,17.76-14.652,119.888,119.888,0,0,1,20.385-11.064,119.332,119.332,0,0,1,22.524-6.992c.668-.137,1.354-.271,2.039-.4l2.708,14a105.763,105.763,0,0,0-86.312,103.959A105.869,105.869,0,0,0-6985,1634.174a105.87,105.87,0,0,0,105.75-105.75c0-56.847-46.218-104.271-103.027-105.715l.235-14.249a120.757,120.757,0,0,1,21.226,2.4,119.328,119.328,0,0,1,22.524,6.992,119.916,119.916,0,0,1,20.385,11.064,120.837,120.837,0,0,1,17.758,14.652,120.869,120.869,0,0,1,14.654,17.76,120.05,120.05,0,0,1,11.064,20.385,119.32,119.32,0,0,1,6.991,22.524,120.91,120.91,0,0,1,2.438,24.184,120.911,120.911,0,0,1-2.438,24.184,119.315,119.315,0,0,1-6.991,22.524,120.05,120.05,0,0,1-11.064,20.385,120.857,120.857,0,0,1-14.654,17.76,120.86,120.86,0,0,1-17.758,14.652,120.038,120.038,0,0,1-20.385,11.064,119.31,119.31,0,0,1-22.524,6.992A120.8,120.8,0,0,1-6985,1648.425Z" transform="translate(8303 -761.46)"/></g></svg>