<svg xmlns="http://www.w3.org/2000/svg" xmlns:xlink="http://www.w3.org/1999/xlink" width="43.85" height="50" viewBox="0 0 43.85 50"><defs><style>.a{fill:url(#a);}</style><linearGradient id="a" x1="0.5" x2="0.5" y2="1" gradientUnits="objectBoundingBox"><stop offset="0" stop-color="#751cdb"/><stop offset="1" stop-color="#2bd3fe"/></linearGradient></defs><path class="a" d="M31.263,31.308l-9.338,9.316-9.338-9.316A13.109,13.109,0,0,0,0,44.374v.937A4.694,4.694,0,0,0,4.7,50H39.152a4.694,4.694,0,0,0,4.7-4.687v-.937A13.109,13.109,0,0,0,31.263,31.308ZM1.331,7.793l.626.146v5.7a2.253,2.253,0,0,0-.088,3.906L.343,23.632C.176,24.306.548,25,1.086,25H5.178c.538,0,.91-.693.744-1.367L4.395,17.549a2.253,2.253,0,0,0-.088-3.906V8.506l6.46,1.553A12.38,12.38,0,0,0,9.4,15.625a12.529,12.529,0,0,0,25.057,0,12.254,12.254,0,0,0-1.37-5.566l9.426-2.266a1.553,1.553,0,0,0,0-3.076L23.873.225a8.427,8.427,0,0,0-3.886,0L1.331,4.707a1.56,1.56,0,0,0,0,3.086Z" transform="translate(0 0.002)"/></svg>