<svg xmlns="http://www.w3.org/2000/svg" width="66" height="120" viewBox="0 0 66 120"><defs><style>.a{fill:#1f2233;}.b{fill:none;}.c,.e{fill:#2bd3fe;}.d,.e{stroke:none;}</style></defs><g transform="translate(6910 -221) rotate(180)"><rect class="a" width="66" height="120" transform="translate(6844 -341)"/><g transform="translate(6847 -338)"><g class="b" transform="translate(0 53.855)"><path class="d" d="M30,0A30,30,0,1,1,0,30,30,30,0,0,1,30,0Z"/><path class="e" d="M 30 4 C 26.48825454711914 4 23.08369064331055 4.686878204345703 19.88085556030273 6.04156494140625 C 16.7852668762207 7.350887298583984 14.00431060791016 9.226131439208984 11.6152229309082 11.6152229309082 C 9.226131439208984 14.00431060791016 7.350887298583984 16.7852668762207 6.04156494140625 19.88085556030273 C 4.686878204345703 23.08369064331055 4 26.48825454711914 4 30 C 4 33.51174163818359 4.686878204345703 36.91631317138672 6.04156494140625 40.11914443969727 C 7.350887298583984 43.2147331237793 9.226131439208984 45.99568939208984 11.6152229309082 48.3847770690918 C 14.00431060791016 50.77386474609375 16.7852668762207 52.64911270141602 19.88085556030273 53.95843505859375 C 23.08369064331055 55.3131217956543 26.48825454711914 56 30 56 C 33.51173400878906 56 36.91631317138672 55.3131217956543 40.11914443969727 53.95843505859375 C 43.2147216796875 52.64911270141602 45.99568939208984 50.77386474609375 48.3847770690918 48.3847770690918 C 50.77385711669922 45.99568939208984 52.64911270141602 43.2147331237793 53.95843505859375 40.11914443969727 C 55.3131217956543 36.91631317138672 56 33.51174163818359 56 30 C 56 26.48825454711914 55.3131217956543 23.08369064331055 53.95843505859375 19.88085556030273 C 52.64911270141602 16.7852668762207 50.77385711669922 14.00431060791016 48.3847770690918 11.6152229309082 C 45.99568939208984 9.226131439208984 43.2147216796875 7.350887298583984 40.11914443969727 6.04156494140625 C 36.91631317138672 4.686878204345703 33.51173400878906 4 30 4 M 30 0 C 46.56853485107422 0 60 13.43145370483398 60 30 C 60 46.56854248046875 46.56853485107422 60 30 60 C 13.43145370483398 60 0 46.56854248046875 0 30 C 0 13.43145370483398 13.43145370483398 0 30 0 Z"/></g><path class="c" d="M6,0A6,6,0,1,1,0,6,6,6,0,0,1,6,0Z" transform="translate(24.118)"/><path class="c" d="M6,0A6,6,0,1,1,0,6,6,6,0,0,1,6,0Z" transform="translate(24.118 77.974)"/><path class="c" d="M-7096.407,1410.853h0a9.53,9.53,0,0,0-2.5-.335,9.662,9.662,0,0,0-2.5.333V1372.5a5.952,5.952,0,0,0,2.409.5,5.945,5.945,0,0,0,2.593-.588v38.438l0,0Z" transform="translate(7129.118 -1359)"/></g></g></svg>