<svg xmlns="http://www.w3.org/2000/svg" width="60" height="113.855" viewBox="0 0 60 113.855">
  <g id="Group_109" data-name="Group 109" transform="translate(-6605 318)">
    <g id="Path_12" data-name="Path 12" transform="translate(6605 -264.145)" fill="#24283d">
      <path d="M 30 58 C 26.21913909912109 58 22.55244064331055 57.25996017456055 19.10174942016602 55.80044174194336 C 15.7677698135376 54.39028930664063 12.77313041687012 52.37110900878906 10.20100975036621 49.79898834228516 C 7.628890037536621 47.22687149047852 5.609710216522217 44.23223114013672 4.199560165405273 40.89825057983398 C 2.740040063858032 37.44755935668945 2 33.78086090087891 2 30 C 2 26.21913909912109 2.740040063858032 22.55244064331055 4.199560165405273 19.10174942016602 C 5.609710216522217 15.7677698135376 7.628890037536621 12.77313041687012 10.20100975036621 10.20100975036621 C 12.77313041687012 7.628890037536621 15.7677698135376 5.609710216522217 19.10174942016602 4.199560165405273 C 22.55244064331055 2.740040063858032 26.21913909912109 2 30 2 C 33.78086090087891 2 37.44755935668945 2.740040063858032 40.89825057983398 4.199560165405273 C 44.23223114013672 5.609710216522217 47.22687149047852 7.628890037536621 49.79898834228516 10.20100975036621 C 52.37110900878906 12.77313041687012 54.39028930664063 15.7677698135376 55.80044174194336 19.10174942016602 C 57.25996017456055 22.55244064331055 58 26.21913909912109 58 30 C 58 33.78086090087891 57.25996017456055 37.44755935668945 55.80044174194336 40.89825057983398 C 54.39028930664063 44.23223114013672 52.37110900878906 47.22687149047852 49.79898834228516 49.79898834228516 C 47.22687149047852 52.37110900878906 44.23223114013672 54.39028930664063 40.89825057983398 55.80044174194336 C 37.44755935668945 57.25996017456055 33.78086090087891 58 30 58 Z" stroke="none"/>
      <path d="M 30 4 C 26.48825454711914 4 23.08369064331055 4.686878204345703 19.88085556030273 6.04156494140625 C 16.7852668762207 7.350887298583984 14.00431060791016 9.226131439208984 11.6152229309082 11.6152229309082 C 9.226131439208984 14.00431060791016 7.350887298583984 16.7852668762207 6.04156494140625 19.88085556030273 C 4.686878204345703 23.08369064331055 4 26.48825454711914 4 30 C 4 33.51174163818359 4.686878204345703 36.91631317138672 6.04156494140625 40.11914443969727 C 7.350887298583984 43.2147331237793 9.226131439208984 45.99568939208984 11.6152229309082 48.3847770690918 C 14.00431060791016 50.77386474609375 16.7852668762207 52.64911270141602 19.88085556030273 53.95843505859375 C 23.08369064331055 55.3131217956543 26.48825454711914 56 30 56 C 33.51173400878906 56 36.91631317138672 55.3131217956543 40.11914443969727 53.95843505859375 C 43.2147216796875 52.64911270141602 45.99568939208984 50.77386474609375 48.3847770690918 48.3847770690918 C 50.77385711669922 45.99568939208984 52.64911270141602 43.2147331237793 53.95843505859375 40.11914443969727 C 55.3131217956543 36.91631317138672 56 33.51174163818359 56 30 C 56 26.48825454711914 55.3131217956543 23.08369064331055 53.95843505859375 19.88085556030273 C 52.64911270141602 16.7852668762207 50.77385711669922 14.00431060791016 48.3847770690918 11.6152229309082 C 45.99568939208984 9.226131439208984 43.2147216796875 7.350887298583984 40.11914443969727 6.04156494140625 C 36.91631317138672 4.686878204345703 33.51173400878906 4 30 4 M 30 0 C 46.56853485107422 0 60 13.43145370483398 60 30 C 60 46.56854248046875 46.56853485107422 60 30 60 C 13.43145370483398 60 0 46.56854248046875 0 30 C 0 13.43145370483398 13.43145370483398 0 30 0 Z" stroke="none" fill="#2bd3fe"/>
    </g>
    <path id="Path_15" data-name="Path 15" d="M6,0A6,6,0,1,1,0,6,6,6,0,0,1,6,0Z" transform="translate(6629.118 -318)" fill="#2bd3fe"/>
    <path id="Path_13" data-name="Path 13" d="M6,0A6,6,0,1,1,0,6,6,6,0,0,1,6,0Z" transform="translate(6629.118 -240.026)" fill="#2bd3fe"/>
    <path id="Subtraction_10" data-name="Subtraction 10" d="M-7096.407,1410.853h0a9.53,9.53,0,0,0-2.5-.335,9.662,9.662,0,0,0-2.5.333V1372.5a5.952,5.952,0,0,0,2.409.5,5.945,5.945,0,0,0,2.593-.588v38.438l0,0Z" transform="translate(13734.118 -1677)" fill="#2bd3fe"/>
  </g>
</svg>
