<svg xmlns="http://www.w3.org/2000/svg" xmlns:xlink="http://www.w3.org/1999/xlink" width="73.427" height="43.968" viewBox="0 0 73.427 43.968"><defs><style>.a{fill:url(#a);}</style><linearGradient id="a" x1="0.5" x2="0.5" y2="1" gradientUnits="objectBoundingBox"><stop offset="0" stop-color="#751cdb"/><stop offset="1" stop-color="#2bd3fe"/></linearGradient></defs><path class="a" d="M26.232,10.239a1.186,1.186,0,0,0-.784-.325,1.15,1.15,0,0,0-.784.325l-2.638,2.523a1.112,1.112,0,0,0,0,1.644L40.34,31.9,22.027,49.39a1.112,1.112,0,0,0,0,1.644l2.638,2.523a1.15,1.15,0,0,0,.784.325,1.115,1.115,0,0,0,.784-.325L48.063,32.72a1.112,1.112,0,0,0,0-1.644Z" transform="translate(25 -9.914)"/><path class="a" d="M31.263,13.584a1.13,1.13,0,0,0-.363-.822l-2.638-2.523a1.186,1.186,0,0,0-.784-.325,1.15,1.15,0,0,0-.784.325L4.863,31.076a1.112,1.112,0,0,0,0,1.644L26.694,53.557a1.186,1.186,0,0,0,.784.325,1.115,1.115,0,0,0,.784-.325L30.9,51.034a1.112,1.112,0,0,0,0-1.644L12.586,31.9,30.9,14.406A1.13,1.13,0,0,0,31.263,13.584Z" transform="translate(-4.5 -9.914)"/></svg>