<svg xmlns="http://www.w3.org/2000/svg" xmlns:xlink="http://www.w3.org/1999/xlink" width="53.14" height="53.135" viewBox="0 0 53.14 53.135"><defs><style>.a{fill:url(#a);}</style><linearGradient id="a" x1="0.5" x2="0.5" y2="1" gradientUnits="objectBoundingBox"><stop offset="0" stop-color="#751cdb"/><stop offset="1" stop-color="#2bd3fe"/></linearGradient></defs><path class="a" d="M52.166,5.666,47.475.975a3.326,3.326,0,0,0-4.7,0L35.725,8.022a3.326,3.326,0,0,0,0,4.7L30.1,18.339c-4.712-3.01-10.421-3-13.856.436a8.682,8.682,0,0,0-2.128,3.519,5.322,5.322,0,0,1-4.432,3.622A10.537,10.537,0,0,0,3.1,28.906C-1.692,33.69-.83,42.305,5,48.138s14.448,6.684,19.233,1.9a10.539,10.539,0,0,0,2.989-6.591,5.335,5.335,0,0,1,3.622-4.432,8.682,8.682,0,0,0,3.519-2.128c3.436-3.436,3.436-9.144.436-13.856l5.626-5.626a3.326,3.326,0,0,0,4.7,0l7.048-7.048a3.323,3.323,0,0,0-.01-4.691ZM21.589,36.534a4.982,4.982,0,1,1,4.982-4.982A4.983,4.983,0,0,1,21.589,36.534Z" transform="translate(0 -0.002)"/></svg>