<svg xmlns="http://www.w3.org/2000/svg" xmlns:xlink="http://www.w3.org/1999/xlink" width="50.137" height="50.137" viewBox="0 0 50.137 50.137"><defs><style>.a{fill:url(#a);}</style><linearGradient id="a" x1="0.5" x2="0.5" y2="1" gradientUnits="objectBoundingBox"><stop offset="0" stop-color="#751cdb"/><stop offset="1" stop-color="#2bd3fe"/></linearGradient></defs><path class="a" d="M18.606,47.209a1.07,1.07,0,0,1-.053,1.5l-2.308,2.159a1.062,1.062,0,0,1-1.5-.054L1.3,36.329a1.07,1.07,0,0,1,.054-1.5l2.312-2.155a1.061,1.061,0,0,1,1.5.054ZM35.76,19.947a1.07,1.07,0,0,1-.054,1.5L21.177,35.024a1.062,1.062,0,0,1-1.5-.054l-3.468-3.742a1.07,1.07,0,0,1,.054-1.5L30.789,16.15a1.06,1.06,0,0,1,1.5.054l3.472,3.742ZM23.549,42.588a1.071,1.071,0,0,1-.054,1.5l-2.312,2.158a1.061,1.061,0,0,1-1.5-.054L6.247,31.708A1.07,1.07,0,0,1,6.3,30.2l2.307-2.157a1.062,1.062,0,0,1,1.5.054ZM45.936,20.466a1.07,1.07,0,0,1-.055,1.5L43.57,24.129a1.063,1.063,0,0,1-1.5-.053L28.631,9.59a1.069,1.069,0,0,1,.053-1.5L31,5.922a1.06,1.06,0,0,1,1.5.054l13.436,14.49Zm4.936-4.613a1.072,1.072,0,0,1-.054,1.506l-2.306,2.157a1.06,1.06,0,0,1-1.5-.053L33.576,4.971a1.072,1.072,0,0,1,.053-1.506L35.938,1.3a1.058,1.058,0,0,1,1.5.053Z" transform="translate(-1.018 -1.02)"/></svg>