<svg xmlns="http://www.w3.org/2000/svg" xmlns:xlink="http://www.w3.org/1999/xlink" width="53.142" height="53.143" viewBox="0 0 53.142 53.143"><defs><style>.a{fill:url(#a);}</style><linearGradient id="a" x1="0.5" x2="0.5" y2="1" gradientUnits="objectBoundingBox"><stop offset="0" stop-color="#751cdb"/><stop offset="1" stop-color="#2bd3fe"/></linearGradient></defs><path class="a" d="M53.141,3.323A3.319,3.319,0,0,0,48.823.156L15.61,9.964a3.32,3.32,0,0,0-2.325,3.166V40.264a14.358,14.358,0,0,0-3.321-.407C4.461,39.857,0,42.831,0,46.5s4.461,6.643,9.964,6.643,9.964-2.974,9.964-6.643V22.244L46.5,14.458V33.621a14.358,14.358,0,0,0-3.321-.407c-5.5,0-9.964,2.974-9.964,6.643S37.675,46.5,43.178,46.5s9.964-2.974,9.964-6.643V3.323Z" transform="translate(0 0)"/></svg>