<svg xmlns="http://www.w3.org/2000/svg" xmlns:xlink="http://www.w3.org/1999/xlink" width="53.142" height="53.142" viewBox="0 0 53.142 53.142"><defs><style>.a{fill:url(#a);}</style><linearGradient id="a" x1="0.5" x2="0.5" y2="1" gradientUnits="objectBoundingBox"><stop offset="0" stop-color="#751cdb"/><stop offset="1" stop-color="#2bd3fe"/></linearGradient></defs><path class="a" d="M14.178,14.406a6.643,6.643,0,0,0-4.5,4.292L0,47.745,1.525,49.27l15.58-15.58a5.029,5.029,0,1,1,2.348,2.348L3.873,51.617,5.4,53.142l29.047-9.683a6.643,6.643,0,0,0,4.292-4.5L43.178,23.25,29.892,9.964ZM51.683,7.7,45.444,1.459a4.985,4.985,0,0,0-7.049,0l-5.869,5.87L45.813,20.617l5.869-5.87a4.985,4.985,0,0,0,0-7.049Z"/></svg>