<svg xmlns="http://www.w3.org/2000/svg" xmlns:xlink="http://www.w3.org/1999/xlink" width="36.136" height="51.017" viewBox="0 0 36.136 51.017"><defs><style>.a{fill:url(#a);}</style><linearGradient id="a" x1="0.5" x2="0.5" y2="1" gradientUnits="objectBoundingBox"><stop offset="0" stop-color="#751cdb"/><stop offset="1" stop-color="#2bd3fe"/></linearGradient></defs><path class="a" d="M15.721,34.754a1.442,1.442,0,1,1-1.441-1.482A1.462,1.462,0,0,1,15.721,34.754Z" transform="translate(-2.389 14.781)"/><path class="a" d="M29.3,51.709a1.494,1.494,0,1,0-1.44-1.5A1.469,1.469,0,0,0,29.3,51.709ZM26.814,8.589a3.891,3.891,0,0,0,3.83-3.941,3.832,3.832,0,1,0-7.661,0A3.891,3.891,0,0,0,26.814,8.589ZM6.043,43.019a2.53,2.53,0,0,0-.283,1.172A2.485,2.485,0,0,0,8.212,46.7a2.442,2.442,0,0,0,2.2-1.419L18.77,30.511,15.3,26.942,6.043,43.019Zm18.1-.663a2.441,2.441,0,0,1-2.2,1.42A2.481,2.481,0,0,1,19.5,41.263a2.521,2.521,0,0,1,.283-1.173l3.638-6.578-7.1-7.255a4.785,4.785,0,0,1-.779-5.857L19.37,13.46l-10.129.012a2.128,2.128,0,0,1,0-4.249H39.9a2.13,2.13,0,0,1,0,4.251H28.2l-5.58,10.052L28.3,29.3a3.469,3.469,0,0,1,.7,4.173Zm9.248,4.066a1.063,1.063,0,0,1-1.063,1.063H14.263a1.063,1.063,0,0,1,0-2.126H32.331A1.063,1.063,0,0,1,33.394,46.422Z" transform="translate(-5.76 -0.72)"/></svg>