<svg id="Layer_1" data-name="Layer 1" xmlns="http://www.w3.org/2000/svg" xmlns:xlink="http://www.w3.org/1999/xlink" viewBox="0 0 5815.74 4398.65"><defs><style>.cls-1,.cls-2{fill:#d4145a;}.cls-1{stroke:#000;stroke-miterlimit:10;}.cls-3{fill:#14a1d4;}.cls-4{fill:url(#linear-gradient);}.cls-5{fill:url(#linear-gradient-2);}.cls-6{fill:url(#linear-gradient-3);}.cls-7{fill:#ffd415;}.cls-8{fill:url(#linear-gradient-4);}.cls-9{fill:url(#linear-gradient-5);}.cls-10{fill:url(#linear-gradient-6);}.cls-11{fill:#d4b114;}.cls-12{fill:url(#linear-gradient-7);}.cls-13{fill:url(#linear-gradient-8);}.cls-14{fill:url(#linear-gradient-9);}.cls-15{fill:url(#linear-gradient-10);}.cls-16{fill:url(#linear-gradient-11);}.cls-17{fill:url(#linear-gradient-12);}</style><linearGradient id="linear-gradient" x1="4081.68" y1="3359.84" x2="4140.45" y2="2764.88" gradientUnits="userSpaceOnUse"><stop offset="0" stop-color="#606060"/><stop offset="0.19" stop-color="#7c4e5f"/><stop offset="0.56" stop-color="#ab2f5c"/><stop offset="0.84" stop-color="#c91b5b"/><stop offset="1" stop-color="#d4145a"/></linearGradient><linearGradient id="linear-gradient-2" x1="5457.77" y1="3704.38" x2="5777.54" y2="3396.25" xlink:href="#linear-gradient"/><linearGradient id="linear-gradient-3" x1="5744.54" y1="2945.34" x2="5112.18" y2="2720.92" xlink:href="#linear-gradient"/><linearGradient id="linear-gradient-4" x1="4039.68" y1="1860.84" x2="4098.45" y2="1265.88" xlink:href="#linear-gradient"/><linearGradient id="linear-gradient-5" x1="5415.77" y1="2205.38" x2="5735.54" y2="1897.25" xlink:href="#linear-gradient"/><linearGradient id="linear-gradient-6" x1="5702.54" y1="1446.34" x2="5070.18" y2="1221.92" xlink:href="#linear-gradient"/><linearGradient id="linear-gradient-7" x1="3998.68" y1="291.84" x2="4057.45" y2="-303.12" xlink:href="#linear-gradient"/><linearGradient id="linear-gradient-8" x1="5374.77" y1="636.38" x2="5694.54" y2="328.25" xlink:href="#linear-gradient"/><linearGradient id="linear-gradient-9" x1="5661.54" y1="-122.66" x2="5029.18" y2="-347.08" xlink:href="#linear-gradient"/><linearGradient id="linear-gradient-10" x1="97.06" y1="2091.9" x2="194.29" y2="1107.67" gradientUnits="userSpaceOnUse"><stop offset="0.07" stop-color="#606060"/><stop offset="0.3" stop-color="#77515f"/><stop offset="0.76" stop-color="#b32a5c"/><stop offset="1" stop-color="#d4145a"/></linearGradient><linearGradient id="linear-gradient-11" x1="2408.59" y1="2306.97" x2="2937.58" y2="1797.22" xlink:href="#linear-gradient"/><linearGradient id="linear-gradient-12" x1="2882.98" y1="1051.28" x2="1836.88" y2="680.02" xlink:href="#linear-gradient"/></defs><title>gray gradient</title><g id="Azul"><path class="cls-1" d="M4881.82,3493.26h0Z" transform="translate(0.46 516.74)"/><line class="cls-1" x1="4886.14" y1="3603.57" x2="4886.13" y2="3603.57"/><path class="cls-2" d="M4095.72,3705.58h0" transform="translate(0.46 516.74)"/><path class="cls-2" d="M4246.05,2706a0,0,0,0,0,0,0" transform="translate(0.46 516.74)"/><line class="cls-2" x1="4356.25" y1="3205.85" x2="4355.26" y2="3205.84"/><path class="cls-2" d="M4885.67,3093.58h-65.38c-78.63-4.83-135.2-87.58-135.2-87.58-78-105.2-153.66-178.49-313.23-152.48-74.39,12.12-121.07,63.11-149.69,114.1,10-68.17,32-194.62,67.55-273.84a441,441,0,0,1,154-27.57C4683,2666.21,4877.86,2856.22,4885.67,3093.58Z" transform="translate(0.46 516.74)"/><path class="cls-3" d="M4299.52,3656.43c-41.58-8.81-202.05,55.2-203.8,55.9a440.25,440.25,0,0,1-94.18-272.82V3185.72c37.76,165.8,178.74,260.9,178.74,260.9v17C4194.06,3573.48,4299.52,3656.43,4299.52,3656.43Z" transform="translate(0.46 516.74)"/><path class="cls-4" d="M4246.05,2712.75c-59.57,94.42-65.77,371.59-65.77,371.59v362.28s-141-95.1-178.74-260.9V3108.4C4001.54,2935.24,4101.07,2785.33,4246.05,2712.75Z" transform="translate(0.46 516.74)"/><path class="cls-2" d="M4881.81,3500c-29.49,215.58-214.38,381.69-438.08,381.69a440.85,440.85,0,0,1-319.25-136.25c.86.89,29.1-12.63,31.1-13.41a663.93,663.93,0,0,1,83.8-26.2,674.19,674.19,0,0,1,114.48-17.8,600.42,600.42,0,0,1,63.9-1.36c33.31,1.33,66.54,1.54,99.42-7a296.67,296.67,0,0,0,68.89-26.89c55.91-30.81,94.07-82.62,104.53-145.93.38-2.29.72-4.59,1-6.88Z" transform="translate(0.46 516.74)"/><path class="cls-2" d="M4124.48,3745.45h0" transform="translate(0.46 516.74)"/><path class="cls-2" d="M4095.72,3712.33h0" transform="translate(0.46 516.74)"/><path class="cls-2" d="M4180.28,3084.33" transform="translate(0.46 516.74)"/><path class="cls-2" d="M4881.82,3275v177.87H4463c1.45-169.17,150.82-177.87,150.82-177.87Z" transform="translate(0.46 516.74)"/><path id="D_editable_atrás" data-name="D editable atrás" class="cls-2" d="M5106.49,3653l-.21-749.42s-110.52,21.54-185-103.2l.21,960.28C4996,3635.9,5106.49,3653,5106.49,3653Z" transform="translate(0.46 516.74)"/><path class="cls-2" d="M5359.72,3874.91V3694.85c-1.81,0-3.62.06-5.44.06h-242a186.47,186.47,0,0,0-186,186.5v.5h373v-.5h30.4q10.74.49,21.6.5c2.82,0,5.63,0,8.44-.09Z" transform="translate(0.46 516.74)"/><path class="cls-5" d="M5815.28,3183v234.29a463.84,463.84,0,0,1-21.49,140C5667.63,3685.27,5398,3690.85,5398,3690.85c92.41-14.82,169.38-75.84,206.46-158.63h0a273,273,0,0,0,23.81-111.89v-19.74C5732.94,3323,5788.11,3237.87,5815.28,3183Z" transform="translate(0.46 516.74)"/><path class="cls-3" d="M5793.79,3557.9c-54.86,173.56-209,303-395.79,321.68V3691.43S5667.63,3685.85,5793.79,3557.9Z" transform="translate(0.46 516.74)"/><path class="cls-3" d="M5814.59,3118.54c-56.15,132.89-140.22,199.57-186.31,227.89V3139.91a273,273,0,0,0-23.19-110.48q-4.24-9.61-9.2-18.84c29.52-158.45-73.79-284.56-91.55-304.83C5677.79,2766.33,5804.27,2927,5814.59,3118.54Z" transform="translate(0.46 516.74)"/><path class="cls-6" d="M5595.89,3010.59a273.91,273.91,0,0,0-241.61-144.68h-234a199,199,0,0,1-199-199V2551.26A139.86,139.86,0,0,0,5049.82,2679q5.43.43,11,.43c3,0,6.07-.1,9.06-.29l248.95,1.78h0a.57.57,0,0,1,0,.13q16.11-1.12,32.5-1.13a463,463,0,0,1,153.06,25.85C5522.1,2726,5625.41,2852.14,5595.89,3010.59Z" transform="translate(0.46 516.74)"/><path class="cls-1" d="M5504.34,2705.76c-1.65-1.88-2.56-2.85-2.56-2.85" transform="translate(0.46 516.74)"/></g><g id="Amarillo_claro" data-name="Amarillo claro"><path class="cls-1" d="M4839.82,1994.26h0Z" transform="translate(0.46 516.74)"/><line class="cls-1" x1="4844.14" y1="2104.57" x2="4844.13" y2="2104.57"/><path class="cls-2" d="M4053.72,2206.58h0" transform="translate(0.46 516.74)"/><path class="cls-2" d="M4204.05,1207h0" transform="translate(0.46 516.74)"/><line class="cls-2" x1="4314.25" y1="1706.85" x2="4313.26" y2="1706.84"/><path class="cls-2" d="M4843.67,1594.58h-65.38c-78.63-4.83-135.2-87.58-135.2-87.58-78-105.2-153.66-178.49-313.23-152.48-74.39,12.12-121.07,63.11-149.69,114.1,10-68.17,32-194.62,67.55-273.84a441,441,0,0,1,154-27.57C4641,1167.21,4835.86,1357.22,4843.67,1594.58Z" transform="translate(0.46 516.74)"/><path class="cls-7" d="M4257.52,2157.43c-41.58-8.81-202.05,55.2-203.8,55.9a440.25,440.25,0,0,1-94.18-272.82V1686.72c37.76,165.8,178.74,260.9,178.74,260.9v17C4152.06,2074.48,4257.52,2157.43,4257.52,2157.43Z" transform="translate(0.46 516.74)"/><path class="cls-8" d="M4204.05,1213.75c-59.57,94.42-65.77,371.59-65.77,371.59v362.28s-141-95.1-178.74-260.9V1609.4C3959.54,1436.24,4059.07,1286.33,4204.05,1213.75Z" transform="translate(0.46 516.74)"/><path class="cls-2" d="M4839.81,2001c-29.49,215.58-214.38,381.69-438.08,381.69a440.85,440.85,0,0,1-319.25-136.25c.86.89,29.1-12.63,31.1-13.41a663.93,663.93,0,0,1,83.8-26.2,674.19,674.19,0,0,1,114.48-17.8,600.42,600.42,0,0,1,63.9-1.36c33.31,1.33,66.54,1.54,99.42-7a296.67,296.67,0,0,0,68.89-26.89c55.91-30.81,94.07-82.62,104.53-145.93.38-2.29.72-4.59,1-6.88Z" transform="translate(0.46 516.74)"/><path class="cls-2" d="M4082.48,2246.45h0" transform="translate(0.46 516.74)"/><path class="cls-2" d="M4053.72,2213.33h0" transform="translate(0.46 516.74)"/><path class="cls-2" d="M4138.28,1585.33" transform="translate(0.46 516.74)"/><path class="cls-2" d="M4839.82,1776v177.87H4421c1.45-169.17,150.82-177.87,150.82-177.87Z" transform="translate(0.46 516.74)"/><path id="D_editable_atrás-2" data-name="D editable atrás" class="cls-2" d="M5064.49,2154l-.21-749.42s-110.52,21.54-185-103.2l.21,960.28C4954,2136.9,5064.49,2154,5064.49,2154Z" transform="translate(0.46 516.74)"/><path class="cls-2" d="M5317.72,2375.91V2195.85c-1.81,0-3.62.06-5.44.06h-242a186.47,186.47,0,0,0-186,186.5v.5h373v-.5h30.4q10.74.49,21.6.5c2.82,0,5.63,0,8.44-.09Z" transform="translate(0.46 516.74)"/><path class="cls-9" d="M5773.28,1684v234.29a463.84,463.84,0,0,1-21.49,140C5625.63,2186.27,5356,2191.85,5356,2191.85c92.41-14.82,169.38-75.84,206.46-158.63h0a273,273,0,0,0,23.81-111.89v-19.74C5690.94,1824,5746.11,1738.87,5773.28,1684Z" transform="translate(0.46 516.74)"/><path class="cls-7" d="M5751.79,2058.9c-54.86,173.56-209,303-395.79,321.68V2192.43S5625.63,2186.85,5751.79,2058.9Z" transform="translate(0.46 516.74)"/><path class="cls-7" d="M5772.59,1619.54c-56.15,132.89-140.22,199.57-186.31,227.89V1640.91a273,273,0,0,0-23.19-110.48q-4.24-9.62-9.2-18.84c29.52-158.45-73.79-284.56-91.55-304.83C5635.79,1267.33,5762.27,1428,5772.59,1619.54Z" transform="translate(0.46 516.74)"/><path class="cls-10" d="M5553.89,1511.59a273.91,273.91,0,0,0-241.61-144.68h-234a199,199,0,0,1-199-199V1052.26A139.86,139.86,0,0,0,5007.82,1180q5.43.43,11,.43c3,0,6.07-.1,9.06-.29l248.95,1.78h0a.57.57,0,0,1,0,.13q16.11-1.12,32.5-1.13a463,463,0,0,1,153.06,25.85C5480.1,1227,5583.41,1353.14,5553.89,1511.59Z" transform="translate(0.46 516.74)"/><path class="cls-1" d="M5462.34,1206.76c-1.65-1.88-2.56-2.85-2.56-2.85" transform="translate(0.46 516.74)"/></g><g id="Amarillo_oscuro" data-name="Amarillo oscuro"><path class="cls-1" d="M4798.82,425.26h0Z" transform="translate(0.46 516.74)"/><line class="cls-1" x1="4803.14" y1="535.57" x2="4803.13" y2="535.57"/><path class="cls-2" d="M4012.72,637.58h0" transform="translate(0.46 516.74)"/><path class="cls-2" d="M4163.05-362h0" transform="translate(0.46 516.74)"/><line class="cls-2" x1="4273.25" y1="137.85" x2="4272.26" y2="137.84"/><path class="cls-2" d="M4802.67,25.58h-65.38C4658.66,20.75,4602.09-62,4602.09-62c-78-105.2-153.66-178.49-313.23-152.48-74.39,12.12-121.07,63.11-149.69,114.1,10-68.17,32-194.62,67.55-273.84a441,441,0,0,1,154-27.57C4600-401.79,4794.86-211.78,4802.67,25.58Z" transform="translate(0.46 516.74)"/><path class="cls-11" d="M4216.52,588.43c-41.58-8.81-202.05,55.2-203.8,55.9a440.25,440.25,0,0,1-94.18-272.82V117.72c37.76,165.8,178.74,260.9,178.74,260.9v16.95C4111.06,505.48,4216.52,588.43,4216.52,588.43Z" transform="translate(0.46 516.74)"/><path class="cls-12" d="M4163.05-355.25c-59.57,94.42-65.77,371.59-65.77,371.59V378.62s-141-95.1-178.74-260.9V40.4C3918.54-132.76,4018.07-282.67,4163.05-355.25Z" transform="translate(0.46 516.74)"/><path class="cls-2" d="M4798.81,432c-29.49,215.58-214.38,381.69-438.08,381.69a440.85,440.85,0,0,1-319.25-136.25c.86.89,29.1-12.63,31.1-13.41a663.93,663.93,0,0,1,83.8-26.2A674.19,674.19,0,0,1,4270.86,620a600.42,600.42,0,0,1,63.9-1.36c33.31,1.33,66.54,1.54,99.42-7a296.67,296.67,0,0,0,68.89-26.89C4559,554,4597.14,502.2,4607.6,438.89c.38-2.29.72-4.59,1-6.88Z" transform="translate(0.46 516.74)"/><path class="cls-2" d="M4041.48,677.45h0" transform="translate(0.46 516.74)"/><path class="cls-2" d="M4012.72,644.33h0" transform="translate(0.46 516.74)"/><path class="cls-2" d="M4097.28,16.33" transform="translate(0.46 516.74)"/><path class="cls-2" d="M4798.82,207V384.84H4380C4381.47,215.67,4530.84,207,4530.84,207Z" transform="translate(0.46 516.74)"/><path id="D_editable_atrás-3" data-name="D editable atrás" class="cls-2" d="M5023.49,585l-.21-749.42s-110.52,21.54-185-103.2l.21,960.28C4913,567.9,5023.49,585,5023.49,585Z" transform="translate(0.46 516.74)"/><path class="cls-2" d="M5276.72,806.91V626.85c-1.81,0-3.62.06-5.44.06h-242a186.47,186.47,0,0,0-186,186.5v.5h373v-.5h30.4q10.74.5,21.6.5c2.82,0,5.63,0,8.44-.09Z" transform="translate(0.46 516.74)"/><path class="cls-13" d="M5732.28,115V349.33a463.84,463.84,0,0,1-21.49,140C5584.63,617.27,5315,622.85,5315,622.85,5407.41,608,5484.38,547,5521.46,464.22h0a273,273,0,0,0,23.81-111.89V332.59C5649.94,255,5705.11,169.87,5732.28,115Z" transform="translate(0.46 516.74)"/><path class="cls-11" d="M5710.79,489.9c-54.86,173.56-209,303-395.79,321.68V623.43S5584.63,617.85,5710.79,489.9Z" transform="translate(0.46 516.74)"/><path class="cls-11" d="M5731.59,50.54c-56.15,132.89-140.22,199.57-186.31,227.89V71.91a273,273,0,0,0-23.19-110.48q-4.24-9.61-9.2-18.84c29.52-158.45-73.79-284.56-91.55-304.83C5594.79-301.67,5721.27-141,5731.59,50.54Z" transform="translate(0.46 516.74)"/><path class="cls-14" d="M5512.89-57.41a273.91,273.91,0,0,0-241.61-144.68h-234a198.1,198.1,0,0,1-112-34.49,198.79,198.79,0,0,1-87-164.51V-516.74a139.19,139.19,0,0,0,12.28,46.67A140,140,0,0,0,4966.82-389q5.43.43,11,.43c3,0,6.07-.1,9.06-.29l248.95,1.78h0a.57.57,0,0,1,0,.13q16.11-1.12,32.5-1.13a463,463,0,0,1,153.06,25.85C5439.1-342,5542.41-215.86,5512.89-57.41Z" transform="translate(0.46 516.74)"/><path class="cls-1" d="M5421.34-362.24c-1.65-1.88-2.56-2.85-2.56-2.85" transform="translate(0.46 516.74)"/></g><g id="Degradado_gris" data-name="Degradado gris"><path class="cls-1" d="M1455.78,1957.71h0Z" transform="translate(0.46 516.74)"/><line class="cls-1" x1="1462.63" y1="1802.1" x2="1462.61" y2="1802.1"/><path class="cls-2" d="M155.34,2309h0" transform="translate(0.46 516.74)"/><path class="cls-2" d="M404,655.35s0,0,0,0" transform="translate(0.46 516.74)"/><line class="cls-2" x1="586.03" y1="1144.15" x2="584.39" y2="1144.13"/><path class="cls-2" d="M1462.15,1296.51H1354c-130.08-8-223.66-144.88-223.66-144.88-129-174-254.2-295.28-518.18-252.25-123.06,20-200.28,104.4-247.63,188.76,16.48-112.78,52.92-322,111.75-453a729.69,729.69,0,0,1,254.78-45.61C1126.86,589.51,1449.23,903.85,1462.15,1296.51Z" transform="translate(0.46 516.74)"/><path class="cls-2" d="M492.48,2227.63c-68.78-14.57-334.25,91.32-337.14,92.48A728.27,728.27,0,0,1-.46,1868.78V1448.94C62,1723.22,295.22,1880.55,295.22,1880.55v28C318,2090.41,492.48,2227.63,492.48,2227.63Z" transform="translate(0.46 516.74)"/><path class="cls-15" d="M404,666.51c-98.55,156.2-108.81,614.72-108.81,614.72v599.32S62,1723.22-.46,1448.94V1321C-.46,1034.57,164.19,786.58,404,666.51Z" transform="translate(0.46 516.74)"/><path class="cls-2" d="M1455.76,1968.87c-48.78,356.65-354.64,631.42-724.71,631.42-207.6,0-395-86.48-528.13-225.39,1.42,1.48,48.15-20.88,51.46-22.17A1097.66,1097.66,0,0,1,393,2309.37a1117.1,1117.1,0,0,1,189.38-29.45c35-2.34,70.71-3.65,105.7-2.25,55.11,2.22,110.09,2.55,164.47-11.52,39.56-10.24,78.16-24.74,114-44.48,92.49-51,155.61-136.69,172.92-241.41q.93-5.68,1.71-11.39Z" transform="translate(0.46 516.74)"/><path class="cls-2" d="M202.92,2374.9h0" transform="translate(0.46 516.74)"/><path class="cls-2" d="M155.34,2320.11h0" transform="translate(0.46 516.74)"/><path class="cls-2" d="M295.23,1281.22" transform="translate(0.46 516.74)"/><path class="cls-2" d="M1455.78,1596.58v294.27H763c2.4-279.87,249.5-294.27,249.5-294.27Z" transform="translate(0.46 516.74)"/><path id="D_editable_atrás-4" data-name="D editable atrás" class="cls-2" d="M1827.45,2221.94l-.34-1239.77s-182.83,35.63-306-170.73l.35,1588.59C1644.63,2193.68,1827.45,2221.94,1827.45,2221.94Z" transform="translate(0.46 516.74)"/><path class="cls-2" d="M2246.38,2589.06V2291.2q-4.5.09-9,.09H1837a307,307,0,0,0-175.26,55.16c-80,55.73-132.44,148.44-132.44,253.37v.83h617.05v-.83h50.29q17.77.81,35.74.83c4.67,0,9.32-.06,14-.14Z" transform="translate(0.46 516.74)"/><path class="cls-16" d="M3000,1444.51V1832.1a767.4,767.4,0,0,1-35.55,231.58c-208.71,211.67-654.76,220.9-654.76,220.9,152.88-24.52,280.21-125.46,341.55-262.42h0a451.7,451.7,0,0,0,39.39-185.1V1804.4C2863.79,1676.1,2955.05,1535.22,3000,1444.51Z" transform="translate(0.46 516.74)"/><path class="cls-2" d="M2964.45,2064.64c-90.76,287.12-345.77,501.26-654.76,532.15V2285.53S2755.74,2276.3,2964.45,2064.64Z" transform="translate(0.46 516.74)"/><path class="cls-2" d="M2998.86,1337.8c-92.89,219.84-232,330.15-308.21,377V1373.16a451.65,451.65,0,0,0-38.37-182.77q-7-15.9-15.22-31.17C2685.9,897.1,2515,688.48,2485.61,654.94,2772.55,755.14,2981.79,1020.94,2998.86,1337.8Z" transform="translate(0.46 516.74)"/><path class="cls-17" d="M2637.06,1159.22c-76.39-142.46-226.72-239.34-399.69-239.34H1850.26A327.69,327.69,0,0,1,1665,862.82c-86.88-59.27-143.92-159-143.92-272.15V399.35a230.35,230.35,0,0,0,20.31,77.21c34.26,74.38,106.79,127.48,192.33,134.08q9,.72,18.13.71c5,0,10-.16,15-.48l411.84,3h0a.82.82,0,0,1,0,.22q26.66-1.86,53.77-1.87a765.9,765.9,0,0,1,253.2,42.76C2515,688.48,2685.9,897.1,2637.06,1159.22Z" transform="translate(0.46 516.74)"/><path class="cls-1" d="M2485.61,654.94c-2.73-3.11-4.23-4.71-4.23-4.71" transform="translate(0.46 516.74)"/></g></svg>