<svg id="Layer_1" data-name="Layer 1" xmlns="http://www.w3.org/2000/svg" xmlns:xlink="http://www.w3.org/1999/xlink" viewBox="0 0 2997.26 2198.94"><defs><style>.cls-1,.cls-2{fill:#d4145a;}.cls-1{stroke:#000;stroke-miterlimit:10;}.cls-3{fill:url(#linear-gradient);}.cls-4{fill:url(#linear-gradient-2);}.cls-5{fill:url(#linear-gradient-3);}</style><linearGradient id="linear-gradient" x1="98.79" y1="2091.27" x2="195.91" y2="1108.09" gradientUnits="userSpaceOnUse"><stop offset="0.07" stop-color="#fff"/><stop offset="0.19" stop-color="#fbe8ef"/><stop offset="0.44" stop-color="#f0acc4"/><stop offset="0.8" stop-color="#de4c81"/><stop offset="1" stop-color="#d4145a"/></linearGradient><linearGradient id="linear-gradient-2" x1="2407.85" y1="2306.11" x2="2936.27" y2="1796.9" gradientUnits="userSpaceOnUse"><stop offset="0" stop-color="#fff"/><stop offset="0.27" stop-color="#f1b0c7"/><stop offset="0.53" stop-color="#e46d98"/><stop offset="0.75" stop-color="#db3d77"/><stop offset="0.91" stop-color="#d61f62"/><stop offset="1" stop-color="#d4145a"/></linearGradient><linearGradient id="linear-gradient-3" x1="2881.74" y1="1051.76" x2="1836.75" y2="680.9" xlink:href="#linear-gradient-2"/></defs><title>File to export to other formats</title><g id="Degradado_blanco" data-name="Degradado blanco"><path class="cls-1" d="M1456.06,1957.22h0Z" transform="translate(-1.37 -400.53)"/><line class="cls-1" x1="1461.07" y1="885.05" x2="1461.05" y2="885.05"/><path class="cls-2" d="M157,2308.09h0" transform="translate(-1.37 -400.53)"/><path class="cls-2" d="M405.43,656.25a0,0,0,0,0,0,0" transform="translate(-1.37 -400.53)"/><line class="cls-2" x1="585.41" y1="227.81" x2="583.77" y2="227.79"/><path class="cls-2" d="M1462.42,1296.73h-108C1224.44,1288.75,1131,1152,1131,1152,1002,978.15,877,857,613.33,900c-122.93,20-200.07,104.29-247.36,188.55C382.43,975.92,418.83,767,477.59,636.05A728.66,728.66,0,0,1,732.1,590.48C1127.49,590.48,1449.52,904.48,1462.42,1296.73Z" transform="translate(-1.37 -400.53)"/><path class="cls-2" d="M493.79,2226.86c-68.71-14.56-333.89,91.22-336.79,92.37A727.48,727.48,0,0,1,1.37,1868.39V1449c62.4,274,295.37,431.15,295.37,431.15v28C319.51,2089.78,493.79,2226.86,493.79,2226.86Z" transform="translate(-1.37 -400.53)"/><path class="cls-3" d="M405.43,667.4c-98.44,156-108.69,614.06-108.69,614.06v598.68S63.77,1723,1.37,1449V1321.22C1.37,1035.07,165.84,787.34,405.43,667.4Z" transform="translate(-1.37 -400.53)"/><path class="cls-2" d="M1456,1968.37c-48.73,356.27-354.27,630.75-723.94,630.75-207.37,0-394.59-86.39-527.57-225.16,1.42,1.49,48.1-20.85,51.41-22.14a1096.9,1096.9,0,0,1,138.48-43.31,1114.74,1114.74,0,0,1,189.18-29.42c34.94-2.34,70.63-3.65,105.58-2.24,55.05,2.2,110,2.54,164.31-11.52,39.51-10.22,78.07-24.71,113.85-44.43,92.39-50.91,155.45-136.54,172.73-241.16q.95-5.67,1.71-11.37Z" transform="translate(-1.37 -400.53)"/><path class="cls-2" d="M204.53,2374h0" transform="translate(-1.37 -400.53)"/><path class="cls-2" d="M157,2319.23h0" transform="translate(-1.37 -400.53)"/><path class="cls-2" d="M296.74,1281.45" transform="translate(-1.37 -400.53)"/><path class="cls-2" d="M1456.06,1596.48v294H764c2.39-279.57,249.23-294,249.23-294Z" transform="translate(-1.37 -400.53)"/><path id="D_editable_atrás" data-name="D editable atrás" class="cls-2" d="M1827.33,2221.17,1827,982.72s-182.63,35.59-305.72-170.54l.35,1586.89C1644.71,2192.94,1827.33,2221.17,1827.33,2221.17Z" transform="translate(-1.37 -400.53)"/><path class="cls-2" d="M2245.82,2587.9V2290.36c-3,0-6,.09-9,.09H1836.9a306.73,306.73,0,0,0-175.07,55.09c-80,55.68-132.3,148.28-132.3,253.1v.83h616.4v-.83h50.23q17.74.83,35.7.83c4.66,0,9.31-.06,14-.14Z" transform="translate(-1.37 -400.53)"/><path class="cls-4" d="M2998.63,1444.57v387.17a766.49,766.49,0,0,1-35.51,231.34c-208.48,211.44-654.06,220.66-654.06,220.66,152.71-24.49,279.91-125.32,341.19-262.14h0a451.1,451.1,0,0,0,39.35-184.9v-32.62C2862.56,1675.91,2953.73,1535.18,2998.63,1444.57Z" transform="translate(-1.37 -400.53)"/><path class="cls-2" d="M2963.12,2064c-90.66,286.82-345.4,500.74-654.06,531.59V2284.7S2754.64,2275.48,2963.12,2064Z" transform="translate(-1.37 -400.53)"/><path class="cls-2" d="M2997.49,1338c-92.79,219.6-231.72,329.79-307.88,376.59V1373.29a451.2,451.2,0,0,0-38.32-182.57q-7-15.88-15.21-31.13c48.79-261.85-121.94-470.25-151.29-503.74C2771.43,755.94,2980.44,1021.45,2997.49,1338Z" transform="translate(-1.37 -400.53)"/><path class="cls-5" d="M2636.08,1159.59c-76.31-142.32-226.48-239.09-399.27-239.09H1850.12a327.33,327.33,0,0,1-185.08-57c-86.79-59.21-143.77-158.87-143.77-271.86V400.53a229.89,229.89,0,0,0,20.29,77.12C1575.79,552,1648.23,605,1733.68,611.59q9,.72,18.12.71c5,0,10-.16,15-.48l411.4,2.94v0a.71.71,0,0,1,0,.21q26.63-1.85,53.71-1.86a765.14,765.14,0,0,1,252.93,42.72C2514.14,689.34,2684.87,897.74,2636.08,1159.59Z" transform="translate(-1.37 -400.53)"/><path class="cls-1" d="M2484.79,655.85c-2.72-3.11-4.23-4.71-4.23-4.71" transform="translate(-1.37 -400.53)"/></g></svg>